<?xml version="1.0" standalone="no"?>
<!DOCTYPE svg PUBLIC "-//W3C//DTD SVG 20010904//EN"
 "http://www.w3.org/TR/2001/REC-SVG-20010904/DTD/svg10.dtd">
<svg version="1.0" xmlns="http://www.w3.org/2000/svg"
 width="256.000000pt" height="256.000000pt" viewBox="0 0 256.000000 256.000000"
 preserveAspectRatio="xMidYMid meet">

<g transform="translate(0.000000,256.000000) scale(0.100000,-0.100000)"
fill="#000000" stroke="none">
<path d="M230 2203 c-62 -32 -70 -62 -70 -278 1 -173 2 -188 16 -163 28 52 33
53 429 58 409 6 384 2 492 77 l62 43 585 -2 584 -3 27 -25 c15 -14 31 -34 36
-45 7 -15 8 -11 4 14 -3 19 -13 43 -23 54 -41 46 -48 47 -649 47 l-568 0 -45
58 c-74 94 -112 132 -154 155 -39 21 -54 22 -366 25 -295 2 -328 1 -360 -15z"/>
<path d="M2373 623 c-13 -13 -25 -23 -28 -23 -48 0 -50 0 -35 -10 12 -8 9 -10
-13 -10 -16 0 -26 -4 -22 -10 6 -10 -1 -12 -42 -13 -12 0 -21 -3 -19 -6 3 -4
-9 -14 -25 -24 -17 -9 -27 -11 -22 -4 4 6 -5 4 -20 -6 -25 -16 -83 -17 -971
-15 l-944 3 -27 25 c-15 14 -31 34 -36 45 -7 15 -8 11 -4 -15 6 -39 34 -73 73
-89 19 -8 328 -11 1059 -9 l1031 3 25 23 c34 32 49 71 45 118 l-3 39 -22 -22z"/>
</g>
</svg>
