<?xml version="1.0" standalone="no"?>
<!DOCTYPE svg PUBLIC "-//W3C//DTD SVG 20010904//EN"
 "http://www.w3.org/TR/2001/REC-SVG-20010904/DTD/svg10.dtd">
<svg version="1.0" xmlns="http://www.w3.org/2000/svg"
 width="256.000000pt" height="256.000000pt" viewBox="0 0 256.000000 256.000000"
 preserveAspectRatio="xMidYMid meet">

<g transform="translate(0.000000,256.000000) scale(0.100000,-0.100000)"
fill="#000000" stroke="none">
<path d="M231 2391 c-36 -10 -65 -55 -64 -98 1 -34 29 -64 490 -525 l488 -488
-490 -490 c-484 -484 -490 -490 -490 -530 0 -56 39 -95 95 -95 40 0 46 6 530
490 l490 490 490 -490 c484 -484 490 -490 530 -490 56 0 95 39 95 95 0 40 -6
46 -490 530 l-490 490 489 489 c482 482 489 489 490 530 1 56 -35 93 -93 95
l-41 1 -490 -490 -490 -490 -488 488 c-268 268 -493 487 -499 487 -6 0 -17 2
-25 4 -7 2 -24 1 -37 -3z m184 -210 c3 -5 2 -12 -3 -15 -5 -3 -9 1 -9 9 0 17
3 19 12 6z"/>
</g>
</svg>
