<?xml version="1.0" standalone="no"?>
<!DOCTYPE svg PUBLIC "-//W3C//DTD SVG 20010904//EN"
 "http://www.w3.org/TR/2001/REC-SVG-20010904/DTD/svg10.dtd">
<svg version="1.0" xmlns="http://www.w3.org/2000/svg"
 width="256.000000pt" height="256.000000pt" viewBox="0 0 256.000000 256.000000"
 preserveAspectRatio="xMidYMid meet">

<g transform="translate(0.000000,256.000000) scale(0.100000,-0.100000)"
fill="#000000" stroke="none">
<path d="M462 2378 c-17 -17 -17 -2179 0 -2196 17 -17 1629 -17 1646 0 9 9 12
213 12 857 l0 845 -252 253 -252 253 -571 0 c-431 0 -574 -3 -583 -12z m1138
-247 c0 -195 2 -232 16 -245 13 -14 50 -16 245 -16 l229 0 0 -835 0 -835 -805
0 -805 0 0 1080 0 1080 560 0 560 0 0 -229z m255 -11 l220 -220 -223 0 -222 0
0 220 c0 121 1 220 3 220 1 0 101 -99 222 -220z"/>
</g>
</svg>
