<?xml version="1.0" standalone="no"?>
<!DOCTYPE svg PUBLIC "-//W3C//DTD SVG 20010904//EN"
 "http://www.w3.org/TR/2001/REC-SVG-20010904/DTD/svg10.dtd">
<svg version="1.0" xmlns="http://www.w3.org/2000/svg"
 width="60.000000pt" height="60.000000pt" viewBox="0 0 60.000000 60.000000"
 preserveAspectRatio="xMidYMid meet">

<g transform="translate(0.000000,60.000000) scale(0.100000,-0.100000)"
fill="#000000" stroke="none">
<path d="M235 591 c-91 -24 -165 -83 -205 -166 -34 -70 -34 -180 0 -250 31
-63 82 -114 145 -145 70 -34 180 -34 250 0 111 54 169 147 169 270 0 123 -59
217 -167 268 -52 24 -145 36 -192 23z m148 -57 c91 -31 167 -137 167 -234 0
-59 -30 -129 -75 -173 -119 -119 -307 -95 -392 51 -24 40 -28 58 -28 122 0 64
4 82 28 122 63 107 183 152 300 112z"/>
<path d="M353 258 l-83 -83 -50 50 c-29 29 -50 43 -50 34 0 -19 81 -99 101
-99 19 0 173 154 168 169 -2 6 -41 -26 -86 -71z"/>
</g>
</svg>
